<mxfile host="app.diagrams.net" agent="Mozilla/5.0 (Windows NT 10.0; Win64; x64) AppleWebKit/537.36 (KHTML, like Gecko) Chrome/136.0.0.0 Safari/537.36" version="27.0.9">
  <diagram name="PÃ¡gina-1" id="3vbuPIKCTXFM1xZ61lik">
    <mxGraphModel dx="1111" dy="465" grid="1" gridSize="10" guides="1" tooltips="1" connect="1" arrows="1" fold="1" page="1" pageScale="1" pageWidth="827" pageHeight="1169" math="0" shadow="0">
      <root>
        <mxCell id="0" />
        <mxCell id="1" parent="0" />
        <mxCell id="X0tTfW7BBiFSjhk7Dfgt-5" style="edgeStyle=orthogonalEdgeStyle;rounded=0;orthogonalLoop=1;jettySize=auto;html=1;exitX=1;exitY=0.5;exitDx=0;exitDy=0;entryX=0;entryY=0.5;entryDx=0;entryDy=0;" edge="1" parent="1" source="X0tTfW7BBiFSjhk7Dfgt-1" target="X0tTfW7BBiFSjhk7Dfgt-3">
          <mxGeometry relative="1" as="geometry" />
        </mxCell>
        <mxCell id="X0tTfW7BBiFSjhk7Dfgt-7" style="edgeStyle=orthogonalEdgeStyle;rounded=0;orthogonalLoop=1;jettySize=auto;html=1;exitX=0.5;exitY=1;exitDx=0;exitDy=0;entryX=0;entryY=0.5;entryDx=0;entryDy=0;" edge="1" parent="1" source="X0tTfW7BBiFSjhk7Dfgt-1" target="X0tTfW7BBiFSjhk7Dfgt-6">
          <mxGeometry relative="1" as="geometry" />
        </mxCell>
        <mxCell id="X0tTfW7BBiFSjhk7Dfgt-1" value="Estoque&lt;div&gt;Vazio&lt;/div&gt;" style="rounded=1;whiteSpace=wrap;html=1;" vertex="1" parent="1">
          <mxGeometry x="150" y="130" width="120" height="60" as="geometry" />
        </mxCell>
        <mxCell id="X0tTfW7BBiFSjhk7Dfgt-13" style="edgeStyle=orthogonalEdgeStyle;rounded=0;orthogonalLoop=1;jettySize=auto;html=1;exitX=0.5;exitY=1;exitDx=0;exitDy=0;" edge="1" parent="1" source="X0tTfW7BBiFSjhk7Dfgt-3" target="X0tTfW7BBiFSjhk7Dfgt-12">
          <mxGeometry relative="1" as="geometry" />
        </mxCell>
        <mxCell id="X0tTfW7BBiFSjhk7Dfgt-3" value="Pedido&lt;div&gt;recebido&lt;/div&gt;" style="rounded=1;whiteSpace=wrap;html=1;" vertex="1" parent="1">
          <mxGeometry x="440" y="130" width="120" height="60" as="geometry" />
        </mxCell>
        <mxCell id="X0tTfW7BBiFSjhk7Dfgt-6" value="Estoque&amp;nbsp;&lt;div&gt;cheio&lt;/div&gt;" style="rounded=1;whiteSpace=wrap;html=1;" vertex="1" parent="1">
          <mxGeometry x="250" y="410" width="120" height="60" as="geometry" />
        </mxCell>
        <mxCell id="X0tTfW7BBiFSjhk7Dfgt-9" style="edgeStyle=orthogonalEdgeStyle;rounded=0;orthogonalLoop=1;jettySize=auto;html=1;" edge="1" parent="1" source="X0tTfW7BBiFSjhk7Dfgt-8" target="X0tTfW7BBiFSjhk7Dfgt-6">
          <mxGeometry relative="1" as="geometry" />
        </mxCell>
        <mxCell id="X0tTfW7BBiFSjhk7Dfgt-8" value="Estoque&amp;nbsp;&lt;div&gt;Parcial&lt;/div&gt;" style="rounded=1;whiteSpace=wrap;html=1;" vertex="1" parent="1">
          <mxGeometry x="250" y="270" width="120" height="50" as="geometry" />
        </mxCell>
        <mxCell id="X0tTfW7BBiFSjhk7Dfgt-10" value="repor&lt;div&gt;&amp;nbsp;estoque&lt;/div&gt;" style="text;html=1;align=center;verticalAlign=middle;resizable=0;points=[];autosize=1;strokeColor=none;fillColor=none;" vertex="1" parent="1">
          <mxGeometry x="300" y="330" width="70" height="40" as="geometry" />
        </mxCell>
        <mxCell id="X0tTfW7BBiFSjhk7Dfgt-11" value="venar&lt;div&gt;&lt;br&gt;&lt;/div&gt;" style="text;html=1;align=center;verticalAlign=middle;resizable=0;points=[];autosize=1;strokeColor=none;fillColor=none;" vertex="1" parent="1">
          <mxGeometry x="170" y="253" width="50" height="40" as="geometry" />
        </mxCell>
        <mxCell id="X0tTfW7BBiFSjhk7Dfgt-18" style="edgeStyle=orthogonalEdgeStyle;rounded=0;orthogonalLoop=1;jettySize=auto;html=1;entryX=1;entryY=0.5;entryDx=0;entryDy=0;" edge="1" parent="1" source="X0tTfW7BBiFSjhk7Dfgt-12" target="X0tTfW7BBiFSjhk7Dfgt-8">
          <mxGeometry relative="1" as="geometry" />
        </mxCell>
        <mxCell id="X0tTfW7BBiFSjhk7Dfgt-19" style="edgeStyle=orthogonalEdgeStyle;rounded=0;orthogonalLoop=1;jettySize=auto;html=1;entryX=1;entryY=0.75;entryDx=0;entryDy=0;" edge="1" parent="1" source="X0tTfW7BBiFSjhk7Dfgt-12" target="X0tTfW7BBiFSjhk7Dfgt-6">
          <mxGeometry relative="1" as="geometry" />
        </mxCell>
        <mxCell id="X0tTfW7BBiFSjhk7Dfgt-12" value="estoque&lt;div&gt;&amp;nbsp;esgotado&lt;/div&gt;" style="rounded=1;whiteSpace=wrap;html=1;" vertex="1" parent="1">
          <mxGeometry x="450" y="310" width="100" height="50" as="geometry" />
        </mxCell>
        <mxCell id="X0tTfW7BBiFSjhk7Dfgt-20" value="vender" style="text;html=1;align=center;verticalAlign=middle;resizable=0;points=[];autosize=1;strokeColor=none;fillColor=none;" vertex="1" parent="1">
          <mxGeometry x="410" y="388" width="60" height="30" as="geometry" />
        </mxCell>
        <mxCell id="X0tTfW7BBiFSjhk7Dfgt-21" value="fazer pedido&lt;div&gt;&lt;br&gt;&lt;/div&gt;" style="text;html=1;align=center;verticalAlign=middle;resizable=0;points=[];autosize=1;strokeColor=none;fillColor=none;" vertex="1" parent="1">
          <mxGeometry x="290" y="140" width="90" height="40" as="geometry" />
        </mxCell>
        <mxCell id="X0tTfW7BBiFSjhk7Dfgt-22" value="repor&amp;nbsp;&lt;div&gt;estoque&lt;/div&gt;" style="text;html=1;align=center;verticalAlign=middle;resizable=0;points=[];autosize=1;strokeColor=none;fillColor=none;" vertex="1" parent="1">
          <mxGeometry x="490" y="213" width="70" height="40" as="geometry" />
        </mxCell>
      </root>
    </mxGraphModel>
  </diagram>
</mxfile>
